<svg width="175" height="157" viewBox="0 0 175 157" fill="none" xmlns="http://www.w3.org/2000/svg">
<rect width="175" height="157" rx="29" fill="#F5F5FB"/>
<path d="M158 85C158 123.66 163 100 87.4999 111C17.1011 96.2198 16.9999 123.66 16.9999 85C16.9999 46.3401 48.5639 15 87.4999 15C126.436 15 158 46.3401 158 85Z" fill="#160FD2"/>
<path d="M134 95C134 115.435 114.077 111 89.5 111C64.9233 111 42 115.435 42 95C42 74.5655 64.9233 50 89.5 50C114.077 50 134 74.5655 134 95Z" fill="url(#paint0_radial_16_17)"/>
<path d="M31.1393 121C30.9793 121.493 30.7326 121.853 30.3993 122.08C30.066 122.307 29.7193 122.4 29.3593 122.36C28.9993 122.307 28.6926 122.127 28.4393 121.82C28.666 121.647 28.7326 121.46 28.6393 121.26C28.5593 121.047 28.3526 120.873 28.0193 120.74C27.686 120.593 27.2593 120.54 26.7393 120.58C26.206 120.607 25.666 120.78 25.1193 121.1C24.586 121.42 24.1393 121.88 23.7793 122.48C23.4193 123.08 23.2193 123.827 23.1793 124.72C23.1393 125.64 23.2326 126.387 23.4593 126.96C23.686 127.533 23.966 127.973 24.2993 128.28C24.646 128.573 24.9926 128.787 25.3393 128.92C25.686 129.04 25.966 129.12 26.1793 129.16C26.4593 129.213 26.7793 129.253 27.1393 129.28C27.5126 129.293 27.886 129.267 28.2593 129.2C28.6326 129.133 28.9526 129.02 29.2193 128.86C29.4593 128.713 29.7593 128.52 30.1193 128.28C30.4793 128.027 30.826 127.747 31.1593 127.44C31.4926 127.133 31.7393 126.82 31.8993 126.5C32.3526 126.807 32.6326 127.24 32.7393 127.8C32.8593 128.36 32.8126 128.96 32.5993 129.6C32.386 130.24 32.0126 130.847 31.4793 131.42C30.9593 131.98 30.2793 132.44 29.4393 132.8C28.5993 133.147 27.606 133.307 26.4593 133.28C25.926 133.267 25.3126 133.167 24.6193 132.98C23.9393 132.793 23.2526 132.5 22.5593 132.1C21.866 131.687 21.2326 131.147 20.6593 130.48C20.0993 129.8 19.6726 128.96 19.3793 127.96C19.086 126.96 19.006 125.78 19.1393 124.42C19.2593 123.127 19.5793 122.013 20.0993 121.08C20.6326 120.147 21.2793 119.387 22.0393 118.8C22.8126 118.2 23.626 117.753 24.4793 117.46C25.346 117.153 26.1726 116.993 26.9593 116.98C27.746 116.953 28.426 117.073 28.9993 117.34C29.586 117.607 30.0593 117.953 30.4193 118.38C30.7793 118.793 31.0193 119.24 31.1393 119.72C31.2726 120.187 31.2726 120.613 31.1393 121ZM45.4318 129.38C45.4451 129.673 45.4651 130.033 45.4918 130.46C45.5318 130.887 45.6185 131.3 45.7518 131.7C45.8851 132.1 46.0985 132.42 46.3918 132.66C46.0585 132.887 45.7185 133.047 45.3718 133.14C45.0251 133.247 44.6851 133.273 44.3518 133.22C44.2585 133.193 44.1585 133.16 44.0518 133.12C43.9451 133.093 43.7985 133.053 43.6118 133C43.3051 132.907 42.9451 132.887 42.5318 132.94C42.1185 132.993 41.6851 133.06 41.2318 133.14C40.7918 133.233 40.3585 133.28 39.9318 133.28C39.2385 133.28 38.5451 133.16 37.8518 132.92C37.1585 132.667 36.5318 132.28 35.9718 131.76C35.4118 131.24 34.9851 130.58 34.6918 129.78C34.3985 128.98 34.3118 128.02 34.4318 126.9C34.5118 126.127 34.7318 125.42 35.0918 124.78C35.4518 124.127 35.8918 123.567 36.4118 123.1C36.9451 122.62 37.5051 122.253 38.0918 122C38.6918 121.733 39.2718 121.607 39.8318 121.62C40.2585 121.633 40.5851 121.647 40.8118 121.66C41.0518 121.673 41.3585 121.707 41.7318 121.76C41.9585 121.787 42.2451 121.753 42.5918 121.66C42.9385 121.567 43.2851 121.467 43.6318 121.36C43.9918 121.24 44.2985 121.18 44.5518 121.18C44.9385 121.167 45.2118 121.18 45.3718 121.22C45.5318 121.247 45.6651 121.273 45.7718 121.3C45.6918 121.54 45.6251 121.9 45.5718 122.38C45.5185 122.86 45.4785 123.407 45.4518 124.02C45.4385 124.62 45.4251 125.247 45.4118 125.9C45.3985 126.553 45.3918 127.18 45.3918 127.78C45.4051 128.38 45.4185 128.913 45.4318 129.38ZM37.9118 127.54C37.9385 128.207 38.0585 128.727 38.2718 129.1C38.4985 129.46 38.7651 129.713 39.0718 129.86C39.3918 130.007 39.6985 130.08 39.9918 130.08C40.5785 130.093 41.0118 129.867 41.2918 129.4C41.5718 128.933 41.7051 128.287 41.6918 127.46C41.6918 127.233 41.6651 126.967 41.6118 126.66C41.5718 126.353 41.4918 126.053 41.3718 125.76C41.2651 125.467 41.1118 125.22 40.9118 125.02C40.7251 124.82 40.4785 124.72 40.1718 124.72C39.5585 124.72 39.0185 124.947 38.5518 125.4C38.0985 125.853 37.8851 126.567 37.9118 127.54ZM62.5255 130.46C62.5389 130.62 62.5789 130.82 62.6455 131.06C62.7255 131.287 62.7989 131.493 62.8655 131.68C62.9455 131.867 62.9855 131.96 62.9855 131.96C62.9189 132.04 62.7789 132.187 62.5655 132.4C62.3522 132.613 62.0789 132.807 61.7455 132.98C61.4255 133.14 61.0589 133.187 60.6455 133.12C59.9122 132.987 59.4122 132.68 59.1455 132.2C58.8922 131.72 58.7589 131.173 58.7455 130.56C58.7455 130.453 58.7522 130.247 58.7655 129.94C58.7789 129.633 58.7855 129.293 58.7855 128.92C58.7989 128.533 58.7989 128.173 58.7855 127.84C58.7855 127.493 58.7589 127.24 58.7055 127.08C58.6255 126.773 58.5055 126.587 58.3455 126.52C58.1855 126.453 58.0189 126.467 57.8455 126.56C57.6722 126.64 57.5255 126.773 57.4055 126.96C57.2855 127.147 57.2255 127.347 57.2255 127.56C57.2122 127.893 57.2055 128.18 57.2055 128.42C57.2055 128.66 57.2122 128.973 57.2255 129.36C57.2255 129.453 57.2389 129.627 57.2655 129.88C57.2922 130.133 57.3255 130.42 57.3655 130.74C57.4055 131.06 57.4455 131.373 57.4855 131.68C57.5389 131.973 57.5922 132.213 57.6455 132.4C57.3122 132.64 56.9189 132.84 56.4655 133C56.0255 133.16 55.4589 133.16 54.7655 133C54.4055 132.92 54.1389 132.753 53.9655 132.5C53.7922 132.247 53.6722 131.953 53.6055 131.62C53.5522 131.273 53.5255 130.92 53.5255 130.56C53.5255 130.2 53.5255 129.867 53.5255 129.56C53.5255 129.413 53.5322 129.18 53.5455 128.86C53.5722 128.54 53.5855 128.207 53.5855 127.86C53.5855 127.5 53.5522 127.213 53.4855 127C53.4322 126.827 53.3455 126.72 53.2255 126.68C53.1189 126.627 53.0255 126.607 52.9455 126.62C52.7322 126.633 52.5455 126.693 52.3855 126.8C52.2389 126.907 52.1389 127.127 52.0855 127.46C52.0589 127.62 52.0389 127.887 52.0255 128.26C52.0255 128.62 52.0255 129.007 52.0255 129.42C52.0255 129.82 52.0255 130.173 52.0255 130.48C52.0389 130.787 52.0522 130.967 52.0655 131.02C52.1055 131.207 52.1855 131.347 52.3055 131.44C52.4255 131.52 52.4855 131.56 52.4855 131.56C52.4855 131.56 52.4122 131.647 52.2655 131.82C52.1322 131.98 51.9455 132.167 51.7055 132.38C51.4655 132.593 51.1855 132.78 50.8655 132.94C50.5455 133.087 50.1989 133.14 49.8255 133.1C49.4655 133.073 49.1255 132.887 48.8055 132.54C48.4989 132.193 48.3389 131.713 48.3255 131.1L48.2655 123.42C48.2522 122.94 48.1989 122.547 48.1055 122.24C48.0255 121.933 47.9855 121.78 47.9855 121.78C48.1189 121.753 48.3589 121.733 48.7055 121.72C49.0522 121.707 49.4389 121.72 49.8655 121.76C50.2922 121.787 50.6789 121.88 51.0255 122.04C51.2389 122.133 51.4789 122.173 51.7455 122.16C52.0255 122.133 52.2655 122.06 52.4655 121.94C52.6922 121.82 52.9189 121.713 53.1455 121.62C53.3855 121.527 53.6255 121.467 53.8655 121.44C54.1455 121.413 54.4855 121.44 54.8855 121.52C55.2855 121.6 55.6989 121.747 56.1255 121.96C56.3922 122.093 56.7055 122.187 57.0655 122.24C57.4255 122.293 57.6722 122.273 57.8055 122.18C58.0722 121.993 58.3522 121.833 58.6455 121.7C58.9522 121.567 59.2589 121.48 59.5655 121.44C59.7922 121.413 60.0589 121.427 60.3655 121.48C60.6855 121.52 60.9922 121.62 61.2855 121.78C61.5922 121.94 61.8522 122.167 62.0655 122.46C62.2922 122.753 62.4322 123.127 62.4855 123.58C62.5255 123.967 62.5455 124.473 62.5455 125.1C62.5589 125.713 62.5589 126.367 62.5455 127.06C62.5322 127.74 62.5189 128.387 62.5055 129C62.5055 129.6 62.5122 130.087 62.5255 130.46ZM70.4177 121.44C71.6044 121.347 72.6044 121.547 73.4177 122.04C74.2311 122.52 74.8511 123.193 75.2777 124.06C75.7044 124.913 75.9244 125.86 75.9377 126.9C75.9644 127.86 75.8244 128.713 75.5177 129.46C75.2111 130.193 74.7911 130.82 74.2577 131.34C73.7244 131.847 73.1244 132.233 72.4577 132.5C71.8044 132.767 71.1311 132.9 70.4377 132.9C70.2911 132.9 70.0977 132.92 69.8577 132.96C69.6311 132.987 69.4444 133.06 69.2977 133.18C69.2044 133.273 69.1377 133.373 69.0977 133.48C69.0711 133.587 69.0644 133.713 69.0777 133.86C69.1044 134.1 69.1577 134.267 69.2377 134.36C69.3311 134.467 69.4111 134.58 69.4777 134.7C69.3311 134.86 69.1244 135.033 68.8577 135.22C68.5911 135.407 68.2644 135.553 67.8777 135.66C67.5044 135.767 67.0577 135.78 66.5377 135.7C66.2177 135.647 65.9377 135.44 65.6977 135.08C65.4577 134.72 65.3311 134.233 65.3177 133.62L65.2577 124.32C65.2577 123.573 65.2111 122.967 65.1177 122.5C65.0244 122.02 64.9777 121.78 64.9777 121.78C65.1511 121.727 65.4244 121.68 65.7977 121.64C66.1844 121.6 66.5844 121.627 66.9977 121.72C67.1577 121.76 67.3577 121.807 67.5977 121.86C67.8511 121.9 68.1244 121.9 68.4177 121.86C68.8044 121.82 69.1911 121.747 69.5777 121.64C69.9644 121.52 70.2444 121.453 70.4177 121.44ZM70.7977 129.76C71.2244 129.76 71.6244 129.54 71.9977 129.1C72.3711 128.647 72.5577 128.013 72.5577 127.2C72.5577 126.653 72.4644 126.193 72.2777 125.82C72.1044 125.433 71.8844 125.147 71.6177 124.96C71.3511 124.76 71.0911 124.66 70.8377 124.66C70.5844 124.66 70.3244 124.68 70.0577 124.72C69.8044 124.76 69.5777 124.913 69.3777 125.18C69.1911 125.447 69.0711 125.92 69.0177 126.6C68.9511 127.48 69.0044 128.147 69.1777 128.6C69.3644 129.053 69.6111 129.36 69.9177 129.52C70.2244 129.68 70.5177 129.76 70.7977 129.76ZM87.8163 130.46C87.8163 130.58 87.8363 130.76 87.8763 131C87.9163 131.24 87.9697 131.487 88.0363 131.74C88.1163 131.993 88.1963 132.22 88.2763 132.42C88.3563 132.607 88.4363 132.72 88.5163 132.76C88.3297 132.987 88.0297 133.167 87.6163 133.3C87.203 133.447 86.7897 133.473 86.3763 133.38C86.0563 133.287 85.7697 133.2 85.5163 133.12C85.263 133.04 84.9163 133.007 84.4763 133.02C84.1563 133.033 83.8363 133.067 83.5163 133.12C83.2097 133.173 82.8963 133.233 82.5763 133.3C82.4163 133.327 82.1363 133.333 81.7363 133.32C81.3497 133.32 80.923 133.273 80.4563 133.18C80.003 133.087 79.583 132.927 79.1963 132.7C78.6897 132.393 78.3097 131.947 78.0563 131.36C77.803 130.773 77.6563 130.173 77.6163 129.56C77.6163 129.413 77.6097 129.127 77.5963 128.7C77.5963 128.273 77.5897 127.767 77.5763 127.18C77.5763 126.593 77.5697 125.987 77.5563 125.36C77.5563 124.733 77.5497 124.153 77.5363 123.62C77.5363 123.073 77.5363 122.633 77.5363 122.3C77.5363 121.953 77.5363 121.78 77.5363 121.78C77.6563 121.767 77.8563 121.753 78.1363 121.74C78.4297 121.713 78.7497 121.713 79.0963 121.74C79.443 121.767 79.7763 121.833 80.0963 121.94C80.4297 122.033 80.7097 122.187 80.9363 122.4C81.1763 122.613 81.3163 122.9 81.3563 123.26C81.383 123.553 81.403 123.82 81.4163 124.06C81.4297 124.3 81.4363 124.567 81.4363 124.86C81.4363 125.14 81.423 125.493 81.3963 125.92C81.383 126.333 81.363 126.86 81.3363 127.5C81.3097 128.02 81.2963 128.467 81.2963 128.84C81.3097 129.213 81.403 129.493 81.5763 129.68C81.7497 129.867 82.0563 129.947 82.4963 129.92C82.7897 129.907 83.0297 129.793 83.2163 129.58C83.4163 129.353 83.5763 129.08 83.6963 128.76C83.8163 128.44 83.8963 128.113 83.9363 127.78C83.9897 127.447 84.0163 127.153 84.0163 126.9C84.0163 126.847 84.0097 126.64 83.9963 126.28C83.9963 125.92 83.9897 125.493 83.9763 125C83.9763 124.493 83.9697 123.993 83.9563 123.5C83.9563 123.007 83.9563 122.6 83.9563 122.28C83.9563 121.947 83.9563 121.78 83.9563 121.78C84.0763 121.767 84.2763 121.767 84.5563 121.78C84.8363 121.78 85.1497 121.807 85.4963 121.86C85.843 121.913 86.183 122.007 86.5163 122.14C86.8497 122.273 87.1297 122.46 87.3563 122.7C87.5963 122.927 87.7363 123.22 87.7763 123.58C87.8563 124.353 87.8697 125.3 87.8163 126.42C87.7763 127.527 87.7763 128.873 87.8163 130.46ZM95.3345 121.38C96.3211 121.38 97.1611 121.52 97.8545 121.8C98.5611 122.08 99.1011 122.427 99.4745 122.84C99.8478 123.253 100.028 123.66 100.014 124.06C100.014 124.273 99.9211 124.513 99.7345 124.78C99.5478 125.047 99.3011 125.273 98.9945 125.46C98.7011 125.633 98.3745 125.7 98.0145 125.66C98.1078 125.42 98.0478 125.193 97.8345 124.98C97.6211 124.767 97.3145 124.593 96.9145 124.46C96.5145 124.313 96.0811 124.233 95.6145 124.22C95.0811 124.193 94.7211 124.253 94.5345 124.4C94.3478 124.533 94.2411 124.68 94.2145 124.84C94.1745 125.013 94.2545 125.167 94.4545 125.3C94.6545 125.42 94.9145 125.533 95.2345 125.64C95.5678 125.733 95.9145 125.82 96.2745 125.9C96.6478 125.967 96.9878 126.027 97.2945 126.08C97.6145 126.133 97.8611 126.187 98.0345 126.24C98.8345 126.48 99.4211 126.793 99.7945 127.18C100.168 127.553 100.408 127.953 100.514 128.38C100.634 128.807 100.681 129.227 100.654 129.64C100.628 130.307 100.454 130.867 100.134 131.32C99.8278 131.76 99.4411 132.113 98.9745 132.38C98.5211 132.647 98.0411 132.847 97.5345 132.98C97.0411 133.1 96.5745 133.18 96.1345 133.22C95.7078 133.26 95.3811 133.28 95.1545 133.28C94.4611 133.267 93.8078 133.193 93.1945 133.06C92.5945 132.94 92.0745 132.78 91.6345 132.58C91.2078 132.38 90.9011 132.167 90.7145 131.94C90.5811 131.78 90.4545 131.553 90.3345 131.26C90.2145 130.967 90.1411 130.653 90.1145 130.32C90.1011 129.973 90.1745 129.647 90.3345 129.34C90.4945 129.02 90.7878 128.76 91.2145 128.56C91.2945 128.827 91.5078 129.067 91.8545 129.28C92.2145 129.493 92.6411 129.667 93.1345 129.8C93.6411 129.933 94.1411 130.027 94.6345 130.08C95.1145 130.12 95.5678 130.113 95.9945 130.06C96.4211 130.007 96.6545 129.853 96.6945 129.6C96.7211 129.467 96.6545 129.333 96.4945 129.2C96.3345 129.067 96.0411 128.953 95.6145 128.86C95.1611 128.753 94.7611 128.673 94.4145 128.62C94.0811 128.553 93.7478 128.48 93.4145 128.4C92.7878 128.24 92.2411 127.987 91.7745 127.64C91.3078 127.293 90.9545 126.88 90.7145 126.4C90.4878 125.907 90.4078 125.387 90.4745 124.84C90.5811 124.053 90.8678 123.407 91.3345 122.9C91.8145 122.393 92.4078 122.013 93.1145 121.76C93.8211 121.507 94.5611 121.38 95.3345 121.38ZM122.331 121C122.171 121.493 121.924 121.853 121.591 122.08C121.257 122.307 120.911 122.4 120.551 122.36C120.191 122.307 119.884 122.127 119.631 121.82C119.857 121.647 119.924 121.46 119.831 121.26C119.751 121.047 119.544 120.873 119.211 120.74C118.877 120.593 118.451 120.54 117.931 120.58C117.397 120.607 116.857 120.78 116.311 121.1C115.777 121.42 115.331 121.88 114.971 122.48C114.611 123.08 114.411 123.827 114.371 124.72C114.331 125.64 114.424 126.387 114.651 126.96C114.877 127.533 115.157 127.973 115.491 128.28C115.837 128.573 116.184 128.787 116.531 128.92C116.877 129.04 117.157 129.12 117.371 129.16C117.651 129.213 117.971 129.253 118.331 129.28C118.704 129.293 119.077 129.267 119.451 129.2C119.824 129.133 120.144 129.02 120.411 128.86C120.651 128.713 120.951 128.52 121.311 128.28C121.671 128.027 122.017 127.747 122.351 127.44C122.684 127.133 122.931 126.82 123.091 126.5C123.544 126.807 123.824 127.24 123.931 127.8C124.051 128.36 124.004 128.96 123.791 129.6C123.577 130.24 123.204 130.847 122.671 131.42C122.151 131.98 121.471 132.44 120.631 132.8C119.791 133.147 118.797 133.307 117.651 133.28C117.117 133.267 116.504 133.167 115.811 132.98C115.131 132.793 114.444 132.5 113.751 132.1C113.057 131.687 112.424 131.147 111.851 130.48C111.291 129.8 110.864 128.96 110.571 127.96C110.277 126.96 110.197 125.78 110.331 124.42C110.451 123.127 110.771 122.013 111.291 121.08C111.824 120.147 112.471 119.387 113.231 118.8C114.004 118.2 114.817 117.753 115.671 117.46C116.537 117.153 117.364 116.993 118.151 116.98C118.937 116.953 119.617 117.073 120.191 117.34C120.777 117.607 121.251 117.953 121.611 118.38C121.971 118.793 122.211 119.24 122.331 119.72C122.464 120.187 122.464 120.613 122.331 121ZM136.623 129.38C136.637 129.673 136.657 130.033 136.683 130.46C136.723 130.887 136.81 131.3 136.943 131.7C137.077 132.1 137.29 132.42 137.583 132.66C137.25 132.887 136.91 133.047 136.563 133.14C136.217 133.247 135.877 133.273 135.543 133.22C135.45 133.193 135.35 133.16 135.243 133.12C135.137 133.093 134.99 133.053 134.803 133C134.497 132.907 134.137 132.887 133.723 132.94C133.31 132.993 132.877 133.06 132.423 133.14C131.983 133.233 131.55 133.28 131.123 133.28C130.43 133.28 129.737 133.16 129.043 132.92C128.35 132.667 127.723 132.28 127.163 131.76C126.603 131.24 126.177 130.58 125.883 129.78C125.59 128.98 125.503 128.02 125.623 126.9C125.703 126.127 125.923 125.42 126.283 124.78C126.643 124.127 127.083 123.567 127.603 123.1C128.137 122.62 128.697 122.253 129.283 122C129.883 121.733 130.463 121.607 131.023 121.62C131.45 121.633 131.777 121.647 132.003 121.66C132.243 121.673 132.55 121.707 132.923 121.76C133.15 121.787 133.437 121.753 133.783 121.66C134.13 121.567 134.477 121.467 134.823 121.36C135.183 121.24 135.49 121.18 135.743 121.18C136.13 121.167 136.403 121.18 136.563 121.22C136.723 121.247 136.857 121.273 136.963 121.3C136.883 121.54 136.817 121.9 136.763 122.38C136.71 122.86 136.67 123.407 136.643 124.02C136.63 124.62 136.617 125.247 136.603 125.9C136.59 126.553 136.583 127.18 136.583 127.78C136.597 128.38 136.61 128.913 136.623 129.38ZM129.103 127.54C129.13 128.207 129.25 128.727 129.463 129.1C129.69 129.46 129.957 129.713 130.263 129.86C130.583 130.007 130.89 130.08 131.183 130.08C131.77 130.093 132.203 129.867 132.483 129.4C132.763 128.933 132.897 128.287 132.883 127.46C132.883 127.233 132.857 126.967 132.803 126.66C132.763 126.353 132.683 126.053 132.563 125.76C132.457 125.467 132.303 125.22 132.103 125.02C131.917 124.82 131.67 124.72 131.363 124.72C130.75 124.72 130.21 124.947 129.743 125.4C129.29 125.853 129.077 126.567 129.103 127.54ZM145.636 121.5C146.423 121.62 147.01 121.807 147.396 122.06C147.796 122.313 148.056 122.613 148.176 122.96C148.31 123.293 148.343 123.667 148.276 124.08C148.223 124.493 148.123 124.92 147.976 125.36C147.87 125.693 147.71 126.113 147.496 126.62C147.296 127.127 147.083 127.647 146.856 128.18C146.643 128.713 146.443 129.193 146.256 129.62C146.07 130.047 145.943 130.347 145.876 130.52C145.623 131.107 145.396 131.573 145.196 131.92C145.01 132.253 144.816 132.5 144.616 132.66C144.416 132.82 144.17 132.92 143.876 132.96C143.503 133.013 143.17 132.973 142.876 132.84C142.583 132.693 142.356 132.473 142.196 132.18C142.183 132.153 142.156 132.02 142.116 131.78C142.076 131.54 142.036 131.293 141.996 131.04C141.956 130.773 141.916 130.6 141.876 130.52C141.73 130.107 141.536 129.613 141.296 129.04C141.07 128.453 140.823 127.827 140.556 127.16C140.303 126.493 140.043 125.84 139.776 125.2C139.523 124.56 139.29 123.98 139.076 123.46C138.863 122.927 138.69 122.507 138.556 122.2C138.436 121.88 138.376 121.72 138.376 121.72C138.576 121.693 138.856 121.66 139.216 121.62C139.576 121.58 139.956 121.573 140.356 121.6C140.77 121.627 141.156 121.727 141.516 121.9C141.876 122.073 142.163 122.353 142.376 122.74C142.443 122.873 142.53 123.087 142.636 123.38C142.756 123.66 142.87 123.92 142.976 124.16C143.056 124.32 143.136 124.507 143.216 124.72C143.31 124.933 143.416 125.12 143.536 125.28C143.656 125.44 143.796 125.527 143.956 125.54C144.17 125.553 144.343 125.467 144.476 125.28C144.623 125.093 144.736 124.887 144.816 124.66C144.896 124.42 144.956 124.247 144.996 124.14C145.116 123.833 145.23 123.513 145.336 123.18C145.456 122.833 145.543 122.513 145.596 122.22C145.663 121.913 145.676 121.673 145.636 121.5ZM159.198 127.98C159.532 128.207 159.745 128.533 159.838 128.96C159.945 129.373 159.932 129.827 159.798 130.32C159.678 130.813 159.432 131.287 159.058 131.74C158.685 132.18 158.178 132.547 157.538 132.84C156.912 133.133 156.152 133.287 155.258 133.3C154.512 133.313 153.778 133.22 153.058 133.02C152.352 132.82 151.705 132.513 151.118 132.1C150.545 131.687 150.078 131.153 149.718 130.5C149.358 129.847 149.158 129.067 149.118 128.16C149.105 127.973 149.105 127.78 149.118 127.58C149.132 127.38 149.145 127.173 149.158 126.96C149.158 126.907 149.158 126.853 149.158 126.8C149.172 126.747 149.185 126.693 149.198 126.64C149.332 125.84 149.605 125.107 150.018 124.44C150.445 123.773 150.965 123.207 151.578 122.74C152.192 122.273 152.845 121.933 153.538 121.72C154.245 121.493 154.938 121.413 155.618 121.48C156.672 121.587 157.485 121.867 158.058 122.32C158.645 122.773 159.025 123.333 159.198 124C159.385 124.653 159.392 125.36 159.218 126.12C159.125 126.493 158.912 126.867 158.578 127.24C158.258 127.6 157.858 127.927 157.378 128.22C156.898 128.5 156.385 128.72 155.838 128.88C155.305 129.027 154.785 129.087 154.278 129.06C154.025 129.047 153.892 129.127 153.878 129.3C153.865 129.46 153.938 129.64 154.098 129.84C154.258 130.027 154.472 130.153 154.738 130.22C155.365 130.353 155.952 130.36 156.498 130.24C157.058 130.107 157.485 129.927 157.778 129.7C158.018 129.513 158.272 129.267 158.538 128.96C158.805 128.64 159.025 128.313 159.198 127.98ZM154.818 125.96C155.125 125.933 155.392 125.84 155.618 125.68C155.858 125.507 155.978 125.327 155.978 125.14C155.992 124.873 155.925 124.66 155.778 124.5C155.645 124.327 155.412 124.247 155.078 124.26C154.705 124.273 154.345 124.327 153.998 124.42C153.652 124.513 153.445 124.707 153.378 125C153.338 125.2 153.398 125.373 153.558 125.52C153.718 125.667 153.918 125.78 154.158 125.86C154.398 125.927 154.618 125.96 154.818 125.96Z" fill="#170C0C"/>
<defs>
<radialGradient id="paint0_radial_16_17" cx="0" cy="0" r="1" gradientUnits="userSpaceOnUse" gradientTransform="translate(88 80.7031) rotate(90) scale(30.7031 46)">
<stop offset="0.259615" stop-color="#FFE604"/>
<stop offset="0.802885" stop-color="#FFFFF6"/>
</radialGradient>
</defs>
</svg>
